<mxfile host="app.diagrams.net" agent="Mozilla/5.0 (Windows NT 10.0; Win64; x64) AppleWebKit/537.36 (KHTML, like Gecko) Chrome/138.0.0.0 Safari/537.36" version="28.1.0">
  <diagram name="Page-1" id="TdIifKwXxYYDKxGhXXzP">
    <mxGraphModel dx="872" dy="473" grid="1" gridSize="10" guides="1" tooltips="1" connect="1" arrows="1" fold="1" page="1" pageScale="1" pageWidth="850" pageHeight="1100" math="0" shadow="0">
      <root>
        <mxCell id="0" />
        <mxCell id="1" parent="0" />
        <mxCell id="4eu-cpedVq6RQSYUPM0X-2" style="edgeStyle=orthogonalEdgeStyle;rounded=0;orthogonalLoop=1;jettySize=auto;html=1;" edge="1" parent="1" source="4eu-cpedVq6RQSYUPM0X-1">
          <mxGeometry relative="1" as="geometry">
            <mxPoint x="440" y="130" as="targetPoint" />
          </mxGeometry>
        </mxCell>
        <mxCell id="4eu-cpedVq6RQSYUPM0X-1" value="Wake up" style="strokeWidth=2;html=1;shape=mxgraph.flowchart.start_1;whiteSpace=wrap;" vertex="1" parent="1">
          <mxGeometry x="390" y="20" width="100" height="60" as="geometry" />
        </mxCell>
        <mxCell id="4eu-cpedVq6RQSYUPM0X-4" style="edgeStyle=orthogonalEdgeStyle;rounded=0;orthogonalLoop=1;jettySize=auto;html=1;" edge="1" parent="1" source="4eu-cpedVq6RQSYUPM0X-3">
          <mxGeometry relative="1" as="geometry">
            <mxPoint x="230" y="180" as="targetPoint" />
          </mxGeometry>
        </mxCell>
        <mxCell id="4eu-cpedVq6RQSYUPM0X-11" value="Weekday" style="edgeLabel;html=1;align=center;verticalAlign=middle;resizable=0;points=[];" vertex="1" connectable="0" parent="4eu-cpedVq6RQSYUPM0X-4">
          <mxGeometry x="-0.0654" y="-2" relative="1" as="geometry">
            <mxPoint as="offset" />
          </mxGeometry>
        </mxCell>
        <mxCell id="4eu-cpedVq6RQSYUPM0X-5" style="edgeStyle=orthogonalEdgeStyle;rounded=0;orthogonalLoop=1;jettySize=auto;html=1;" edge="1" parent="1" source="4eu-cpedVq6RQSYUPM0X-3">
          <mxGeometry relative="1" as="geometry">
            <mxPoint x="650" y="180" as="targetPoint" />
          </mxGeometry>
        </mxCell>
        <mxCell id="4eu-cpedVq6RQSYUPM0X-12" value="Weekend" style="edgeLabel;html=1;align=center;verticalAlign=middle;resizable=0;points=[];" vertex="1" connectable="0" parent="4eu-cpedVq6RQSYUPM0X-5">
          <mxGeometry x="-0.028" relative="1" as="geometry">
            <mxPoint as="offset" />
          </mxGeometry>
        </mxCell>
        <mxCell id="4eu-cpedVq6RQSYUPM0X-3" value="Check the day" style="strokeWidth=2;html=1;shape=mxgraph.flowchart.decision;whiteSpace=wrap;" vertex="1" parent="1">
          <mxGeometry x="390" y="130" width="100" height="100" as="geometry" />
        </mxCell>
        <mxCell id="4eu-cpedVq6RQSYUPM0X-18" style="edgeStyle=elbowEdgeStyle;rounded=0;orthogonalLoop=1;jettySize=auto;elbow=vertical;html=1;entryX=0.5;entryY=0;entryDx=0;entryDy=0;" edge="1" parent="1" source="4eu-cpedVq6RQSYUPM0X-6" target="4eu-cpedVq6RQSYUPM0X-23">
          <mxGeometry relative="1" as="geometry">
            <mxPoint x="220" y="270" as="targetPoint" />
          </mxGeometry>
        </mxCell>
        <mxCell id="4eu-cpedVq6RQSYUPM0X-6" value="Get ready for school" style="shape=parallelogram;html=1;strokeWidth=2;perimeter=parallelogramPerimeter;whiteSpace=wrap;rounded=1;arcSize=12;size=0.23;" vertex="1" parent="1">
          <mxGeometry x="140" y="150" width="100" height="60" as="geometry" />
        </mxCell>
        <mxCell id="4eu-cpedVq6RQSYUPM0X-19" style="edgeStyle=elbowEdgeStyle;rounded=0;orthogonalLoop=1;jettySize=auto;elbow=vertical;html=1;entryX=0.5;entryY=0;entryDx=0;entryDy=0;" edge="1" parent="1" source="4eu-cpedVq6RQSYUPM0X-7" target="4eu-cpedVq6RQSYUPM0X-20">
          <mxGeometry relative="1" as="geometry">
            <mxPoint x="710" y="250" as="targetPoint" />
          </mxGeometry>
        </mxCell>
        <mxCell id="4eu-cpedVq6RQSYUPM0X-7" value="Freshen up" style="shape=parallelogram;html=1;strokeWidth=2;perimeter=parallelogramPerimeter;whiteSpace=wrap;rounded=1;arcSize=12;size=0.23;" vertex="1" parent="1">
          <mxGeometry x="640" y="150" width="100" height="60" as="geometry" />
        </mxCell>
        <mxCell id="4eu-cpedVq6RQSYUPM0X-25" style="edgeStyle=elbowEdgeStyle;rounded=0;orthogonalLoop=1;jettySize=auto;elbow=vertical;html=1;" edge="1" parent="1" source="4eu-cpedVq6RQSYUPM0X-20" target="4eu-cpedVq6RQSYUPM0X-26">
          <mxGeometry relative="1" as="geometry">
            <mxPoint x="690" y="400" as="targetPoint" />
          </mxGeometry>
        </mxCell>
        <mxCell id="4eu-cpedVq6RQSYUPM0X-20" value="Eat Breakfast and relax" style="shape=parallelogram;html=1;strokeWidth=2;perimeter=parallelogramPerimeter;whiteSpace=wrap;rounded=1;arcSize=12;size=0.23;" vertex="1" parent="1">
          <mxGeometry x="640" y="270" width="100" height="60" as="geometry" />
        </mxCell>
        <mxCell id="4eu-cpedVq6RQSYUPM0X-24" style="edgeStyle=elbowEdgeStyle;rounded=0;orthogonalLoop=1;jettySize=auto;elbow=vertical;html=1;" edge="1" parent="1" source="4eu-cpedVq6RQSYUPM0X-23" target="4eu-cpedVq6RQSYUPM0X-27">
          <mxGeometry relative="1" as="geometry">
            <mxPoint x="190" y="400" as="targetPoint" />
          </mxGeometry>
        </mxCell>
        <mxCell id="4eu-cpedVq6RQSYUPM0X-23" value="Eat Breakfast and go to school" style="shape=parallelogram;html=1;strokeWidth=2;perimeter=parallelogramPerimeter;whiteSpace=wrap;rounded=1;arcSize=12;size=0.23;" vertex="1" parent="1">
          <mxGeometry x="140" y="270" width="100" height="60" as="geometry" />
        </mxCell>
        <mxCell id="4eu-cpedVq6RQSYUPM0X-29" style="edgeStyle=elbowEdgeStyle;rounded=0;orthogonalLoop=1;jettySize=auto;elbow=vertical;html=1;" edge="1" parent="1" source="4eu-cpedVq6RQSYUPM0X-26" target="4eu-cpedVq6RQSYUPM0X-30">
          <mxGeometry relative="1" as="geometry">
            <mxPoint x="440" y="580" as="targetPoint" />
          </mxGeometry>
        </mxCell>
        <mxCell id="4eu-cpedVq6RQSYUPM0X-34" value="At home in evening" style="edgeLabel;html=1;align=center;verticalAlign=middle;resizable=0;points=[];" vertex="1" connectable="0" parent="4eu-cpedVq6RQSYUPM0X-29">
          <mxGeometry x="-0.1243" y="2" relative="1" as="geometry">
            <mxPoint as="offset" />
          </mxGeometry>
        </mxCell>
        <mxCell id="4eu-cpedVq6RQSYUPM0X-26" value="Spend day studying &amp;amp; playing" style="shape=parallelogram;html=1;strokeWidth=2;perimeter=parallelogramPerimeter;whiteSpace=wrap;rounded=1;arcSize=12;size=0.23;" vertex="1" parent="1">
          <mxGeometry x="640" y="400" width="100" height="60" as="geometry" />
        </mxCell>
        <mxCell id="4eu-cpedVq6RQSYUPM0X-28" style="edgeStyle=elbowEdgeStyle;rounded=0;orthogonalLoop=1;jettySize=auto;elbow=vertical;html=1;" edge="1" parent="1" source="4eu-cpedVq6RQSYUPM0X-27">
          <mxGeometry relative="1" as="geometry">
            <mxPoint x="440" y="580" as="targetPoint" />
          </mxGeometry>
        </mxCell>
        <mxCell id="4eu-cpedVq6RQSYUPM0X-31" value="Return home in evening" style="edgeLabel;html=1;align=center;verticalAlign=middle;resizable=0;points=[];" vertex="1" connectable="0" parent="4eu-cpedVq6RQSYUPM0X-28">
          <mxGeometry x="-0.1892" relative="1" as="geometry">
            <mxPoint as="offset" />
          </mxGeometry>
        </mxCell>
        <mxCell id="4eu-cpedVq6RQSYUPM0X-27" value="Study &amp;amp; talk to friends" style="shape=parallelogram;html=1;strokeWidth=2;perimeter=parallelogramPerimeter;whiteSpace=wrap;rounded=1;arcSize=12;size=0.23;" vertex="1" parent="1">
          <mxGeometry x="140" y="400" width="100" height="60" as="geometry" />
        </mxCell>
        <mxCell id="4eu-cpedVq6RQSYUPM0X-35" style="edgeStyle=elbowEdgeStyle;rounded=0;orthogonalLoop=1;jettySize=auto;elbow=vertical;html=1;" edge="1" parent="1" source="4eu-cpedVq6RQSYUPM0X-30" target="4eu-cpedVq6RQSYUPM0X-38">
          <mxGeometry relative="1" as="geometry">
            <mxPoint x="440" y="700" as="targetPoint" />
          </mxGeometry>
        </mxCell>
        <mxCell id="4eu-cpedVq6RQSYUPM0X-30" value="Finish homework and eat dinner" style="shape=parallelogram;html=1;strokeWidth=2;perimeter=parallelogramPerimeter;whiteSpace=wrap;rounded=1;arcSize=12;size=0.23;" vertex="1" parent="1">
          <mxGeometry x="390" y="580" width="100" height="60" as="geometry" />
        </mxCell>
        <mxCell id="4eu-cpedVq6RQSYUPM0X-38" value="Sleep" style="strokeWidth=2;html=1;shape=mxgraph.flowchart.start_1;whiteSpace=wrap;" vertex="1" parent="1">
          <mxGeometry x="390" y="700" width="100" height="60" as="geometry" />
        </mxCell>
      </root>
    </mxGraphModel>
  </diagram>
</mxfile>
